<svg width="512" height="512" viewBox="0 0 512 512" fill="none" xmlns="http://www.w3.org/2000/svg">
<g clip-path="url(#clip0)">
<rect width="512" height="512" fill="#3968D6"/>
<path d="M349.654 490.602L211.19 352.138L243.593 319.736C251.045 311.992 264.085 311.032 272.595 317.514C269.488 357.789 319.785 381.266 348.913 353.264C379.629 324.411 357.011 272.454 315.046 275.073C308.56 266.563 309.519 253.522 317.265 246.067L349.667 213.664L382.093 246.091C397.698 261.856 423.434 260.1 437.635 243.382C433.886 228.794 441.041 212.578 455.33 206.946L449.618 193.003C431.919 200.069 420.283 218.815 421.688 237.656C412.97 244.054 400.621 243.313 392.747 235.439L349.666 192.358L306.61 235.414C290.849 250.625 292.646 277.201 309.319 291.015C340.117 283.37 361.373 319.982 338.569 342.312C315.742 363.076 280.945 341.543 288.54 311.794C274.724 295.119 248.148 293.323 232.94 309.086C232.94 309.085 189.884 352.141 189.884 352.141L349.655 511.913L380.826 480.743L370.172 470.09L349.654 490.602Z" fill="#5B8CFF"/>
<path d="M381.235 458.949L391.748 448.437L402.4 459.089L391.887 469.602L381.235 458.949Z" fill="#5B8CFF"/>
<path d="M459.827 293.284C459.827 288.476 461.339 283.901 464.138 280.1C525.569 281.218 529.059 193.21 467.667 189.622L469.239 204.743C484.453 205.714 497.233 219.119 497.162 234.44C497.723 254.726 477.697 269.261 458.413 264.159C441.755 277.958 439.957 304.507 455.702 319.7C455.701 319.7 488.13 352.126 488.13 352.126L402.868 437.387L413.522 448.04L509.436 352.125L466.355 309.045C462.146 304.836 459.827 299.239 459.827 293.284V293.284Z" fill="#5B8CFF"/>
<path d="M165.157 226.041H225.968V165.217C225.968 154.021 234.225 144.719 244.97 143.08C272.817 174.601 325.517 153.857 324.207 111.736C323.412 71.3459 271.243 52.3731 244.964 83.0476C234.223 81.4064 225.968 72.1043 225.968 60.9118V0.0899658H0V90.4473H15.0666V15.1566H210.9V60.9138C210.787 83.1501 230.272 100.153 252.191 98.3724C267.853 71.9626 307.69 81.3481 309.146 112.17C309.476 144.089 268.558 154.937 252.191 127.757C230.271 125.978 210.788 142.979 210.9 165.217V210.973H165.156C142.908 210.86 125.894 230.354 127.675 252.285C154.859 268.653 143.997 309.582 112.086 309.239C81.2632 307.78 71.8827 267.947 98.2894 252.285C100.068 230.353 83.0581 210.86 60.8088 210.973H15.0656V105.513H0V226.041H60.8098C72.0143 226.041 81.3255 234.305 82.9667 245.059C51.809 271.784 71.945 324.726 113.001 324.321C154.452 324.431 174.045 272.432 142.999 245.065C144.638 234.309 153.95 226.041 165.157 226.041V226.041Z" fill="#5B8CFF"/>
<path d="M234.864 351.668L245.517 341.016L256.169 351.668L245.517 362.32L234.864 351.668Z" fill="#5B8CFF"/>
<path d="M256.169 372.966L266.822 362.313L277.474 372.966L266.822 383.618L256.169 372.966Z" fill="#5B8CFF"/>
<path d="M30.2939 30.1803H45.3605V45.2469H30.2939V30.1803Z" fill="#5B8CFF"/>
<path d="M30.2939 60.3135H45.3605V75.3801H30.2939V60.3135Z" fill="#5B8CFF"/>
</g>
<defs>
<clipPath id="clip0">
<rect width="512" height="512" fill="white"/>
</clipPath>
</defs>
</svg>
