<svg width="750" height="580" xmlns="http://www.w3.org/2000/svg" xmlns:xlink="http://www.w3.org/1999/xlink"><defs><path id="a" d="M0 0h750v580H0z"/><path d="M0 38.68C0 27.201 15.327 0 60.082 0c44.756 0 60.083 27.304 60.083 38.68.337 7.195-5.222 13.3-12.416 13.638-.204.01-.407.014-.61.014H13.651C6.112 52.332 0 46.22 0 38.68z" id="c"/></defs><g fill="none" fill-rule="evenodd"><mask id="b" fill="#fff"><use xlink:href="#a"/></mask><g mask="url(#b)"><path d="M382 199h510v318H382z" fill="#2D5DCC"/><g transform="translate(395 214)" fill="#3069F0"><circle cx="12" cy="12" r="12"/><circle cx="80" cy="12" r="12"/><circle cx="46" cy="12" r="12"/></g><g transform="translate(481 289)" fill="#3069F0"><rect x="84" width="27" height="138" rx="13.5"/><rect x="126" y="21" width="27" height="96" rx="13.5"/><rect x="42" y="39" width="27" height="60" rx="13.5"/><rect x="252" y="39" width="27" height="60" rx="13.5"/><rect y="51" width="27" height="39" rx="13.5"/><rect x="168" y="21" width="27" height="96" rx="13.5"/><rect x="210" width="27" height="138" rx="13.5"/></g><path d="M250 337h118v38.648H250V337zm0 47.176h118v38.648H250v-38.648zm0 47.176h118V470H250v-38.648z" fill="#2D5DCC"/><path fill="#3069F0" d="M261 350h10v10h-10zm16 0h10v10h-10zm16 0h10v10h-10z"/><g transform="rotate(3 -668.694 2191.423)"><mask id="d" fill="#fff"><use xlink:href="#c"/></mask><use fill="#2D5DCC" xlink:href="#c"/><circle fill="#3069F0" mask="url(#d)" cx="96.701" cy="26.166" r="5.688"/><path d="M77.36-15.074V51.48" stroke="#3069F0" stroke-width="12" stroke-linecap="square" mask="url(#d)"/></g><g transform="translate(377 48)"><circle fill="#2D5DCC" cx="28" cy="28" r="28"/><path fill="#3069F0" d="M24 17l12 11.923L24 40z"/></g></g></g></svg>