<svg id="Capa_1" enable-background="new 0 0 509.737 509.737" height="512" viewBox="0 0 509.737 509.737" width="512" xmlns="http://www.w3.org/2000/svg"><g><path d="m348.109 488.434-137.852-137.852 32.259-32.259c7.419-7.71 20.402-8.666 28.874-2.212-3.093 40.097 46.982 63.47 75.981 35.592 30.58-28.726 8.062-80.453-33.717-77.846-6.458-8.472-5.503-21.456 2.209-28.878 0 0 32.258-32.259 32.258-32.259l32.283 32.283c15.536 15.696 41.158 13.947 55.297-2.697-3.733-14.523 3.391-30.668 17.616-36.275l-5.686-13.881c-17.621 7.035-29.206 25.698-27.807 44.456-8.679 6.369-20.974 5.632-28.813-2.208l-42.891-42.89-42.865 42.866c-15.692 15.143-13.902 41.602 2.697 55.355 30.662-7.611 51.824 28.839 29.121 51.07-22.727 20.672-57.37-.766-49.808-30.383-13.755-16.601-40.214-18.389-55.355-2.696 0-.001-42.865 42.865-42.865 42.865l159.065 159.065 31.033-31.032-10.607-10.606z"/><path d="m382.777 449.47h14.804v15h-14.804z" transform="matrix(.707 -.707 .707 .707 -208.849 409.769)"/><path d="m457.795 291.988c0-4.787 1.505-9.342 4.292-13.126 61.159 1.113 64.634-86.506 3.513-90.078l1.565 15.054c15.147.967 27.87 14.313 27.8 29.566.558 20.196-19.379 34.667-38.578 29.587-16.585 13.738-18.375 40.17-2.699 55.296-.001 0 32.284 32.283 32.284 32.283l-84.885 84.884 10.607 10.606 95.49-95.491-42.89-42.89c-4.191-4.19-6.499-9.763-6.499-15.691z"/><path d="m164.427 225.042h60.542v-60.555c0-11.146 8.221-20.407 18.918-22.039 27.724 31.382 80.191 10.729 78.887-31.205-.791-40.212-52.73-59.101-78.893-28.562-10.693-1.634-18.912-10.895-18.912-22.038v-60.553h-224.969v89.958h15v-74.958h194.968v45.555c-.113 22.138 19.286 39.066 41.108 37.293 15.593-26.293 55.254-16.949 56.704 13.737.328 31.778-40.409 42.578-56.704 15.518-21.823-1.771-41.22 15.154-41.108 37.294v45.554h-45.542c-22.15-.113-39.088 19.295-37.315 41.129 27.064 16.296 16.25 57.044-15.52 56.703-30.687-1.453-40.026-41.11-13.736-56.703 1.771-21.835-15.164-41.242-37.315-41.129h-45.541v-104.994h-14.999v119.995h60.541c11.155 0 20.425 8.228 22.059 18.934-31.02 26.607-10.973 79.315 29.902 78.912 41.267.109 60.774-51.66 29.865-78.906 1.632-10.708 10.903-18.94 22.06-18.94z"/><path d="m236.995 342.625h15v15h-15z" transform="matrix(.707 -.707 .707 .707 -175.965 275.433)"/><path d="m258.208 363.839h15v15h-15z" transform="matrix(.707 -.707 .707 .707 -184.75 296.636)"/><path d="m30.16 30.047h15v15h-15z"/><path d="m30.16 60.047h15v15h-15z"/></g></svg>