<svg width="16" height="16" viewBox="0 0 16 16" fill="none" xmlns="http://www.w3.org/2000/svg">
<path d="M7.14162 0.532863L5.18862 4.49286L0.819619 5.12986C0.642885 5.15566 0.476896 5.2304 0.340432 5.34564C0.203968 5.46087 0.102476 5.61199 0.0474332 5.7819C-0.00760945 5.95182 -0.0140049 6.13374 0.028972 6.3071C0.0719489 6.48046 0.162583 6.63833 0.29062 6.76286L3.45162 9.84286L2.70062 14.1939C2.6703 14.3698 2.68986 14.5507 2.75708 14.7161C2.8243 14.8816 2.9365 15.0248 3.08097 15.1298C3.22544 15.2347 3.3964 15.297 3.57449 15.3098C3.75258 15.3225 3.93068 15.2851 4.08862 15.2019L8.00062 13.1479L11.9096 15.2029C12.0678 15.2867 12.2462 15.3244 12.4248 15.3119C12.6033 15.2993 12.7747 15.237 12.9196 15.1319C13.0645 15.0268 13.177 14.8832 13.2443 14.7174C13.3117 14.5516 13.3312 14.3702 13.3006 14.1939L12.5486 9.84286L15.7096 6.76286C15.8377 6.63833 15.9283 6.48046 15.9713 6.3071C16.0142 6.13374 16.0078 5.95182 15.9528 5.7819C15.8978 5.61199 15.7963 5.46087 15.6598 5.34564C15.5233 5.2304 15.3574 5.15566 15.1806 5.12986L10.8116 4.49286L8.85862 0.532863C8.77939 0.372869 8.65703 0.238199 8.50533 0.144045C8.35364 0.0498911 8.17866 0 8.00012 0C7.82158 0 7.6466 0.0498911 7.4949 0.144045C7.34321 0.238199 7.22085 0.372869 7.14162 0.532863Z" fill="#FDB82C"/>
</svg>
