<svg width="214" height="214" viewBox="0 0 214 214" fill="none" xmlns="http://www.w3.org/2000/svg">
<path d="M107.002 213.004C165.544 213.004 213.002 165.546 213.002 107.004C213.002 48.4618 165.544 1.00403 107.002 1.00403C48.4598 1.00403 1.00201 48.4618 1.00201 107.004C1.00201 165.546 48.4598 213.004 107.002 213.004Z" fill="#F1F1F1"/>
<mask id="mask0" mask-type="alpha" maskUnits="userSpaceOnUse" x="0" y="0" width="214" height="214">
<path d="M107.182 213.161C165.901 213.161 213.502 165.552 213.502 106.824C213.502 48.0957 165.901 0.487 107.182 0.487C48.4631 0.487 0.862 48.0957 0.862 106.824C0.862 165.552 48.4631 213.161 107.182 213.161Z" fill="#F1F1F1"/>
</mask>
<g mask="url(#mask0)">
<path d="M66.226 28.75C76.906 28.75 85.488 37.933 85.488 49.221C85.488 60.509 76.906 69.691 66.226 69.691C55.546 69.691 46.964 60.509 46.964 49.221C46.964 37.933 55.546 28.75 66.226 28.75Z" fill="#7F3E13"/>
<path d="M66.226 34.395C58.311 34.395 52.59 41.474 52.59 49.222C52.59 56.874 58.311 64.05 66.226 64.05C74.141 64.05 79.862 56.971 79.862 49.222C79.862 41.567 74.141 34.395 66.226 34.395Z" fill="#B85A1B"/>
<path d="M66.227 40.038C61.364 40.038 58.217 44.63 58.217 49.221C58.217 53.721 61.459 58.405 66.227 58.405C71.09 58.405 74.237 53.813 74.237 49.221C74.237 44.724 70.994 40.038 66.227 40.038Z" fill="#63300F"/>
<path d="M148.139 28.75C158.819 28.75 167.402 37.933 167.402 49.221C167.402 60.509 158.819 69.691 148.139 69.691C137.459 69.691 128.875 60.509 128.875 49.221C128.875 37.933 137.459 28.75 148.139 28.75Z" fill="#7F3E13"/>
<path d="M148.139 34.395C140.224 34.395 134.503 41.474 134.503 49.222C134.503 56.874 140.224 64.05 148.139 64.05C156.054 64.05 161.775 56.971 161.775 49.222C161.775 41.567 156.051 34.395 148.139 34.395Z" fill="#B85A1B"/>
<path d="M148.139 40.038C143.276 40.038 140.129 44.63 140.129 49.221C140.129 53.721 143.372 58.405 148.139 58.405C153.003 58.405 156.149 53.813 156.149 49.221C156.149 44.724 152.908 40.038 148.139 40.038Z" fill="#4F2800"/>
<path d="M99.411 38.316C100.623 38.3116 101.809 38.667 102.818 39.3371C103.828 40.0072 104.616 40.9618 105.083 42.0802C105.549 43.1985 105.674 44.4301 105.44 45.6192C105.206 46.8082 104.625 47.9011 103.769 48.7594C102.914 49.6178 101.823 50.2029 100.635 50.4408C99.4466 50.6787 98.2145 50.5586 97.0946 50.0958C95.9747 49.6329 95.0173 48.8481 94.3438 47.8408C93.6702 46.8334 93.3108 45.6488 93.311 44.437C93.3198 42.82 93.9647 41.2714 95.1062 40.126C96.2476 38.9806 97.794 38.3304 99.411 38.316ZM114.954 38.316C116.166 38.3116 117.352 38.667 118.361 39.3371C119.371 40.0072 120.159 40.9618 120.626 42.0802C121.092 43.1985 121.217 44.4301 120.983 45.6192C120.749 46.8082 120.168 47.9011 119.312 48.7594C118.457 49.6178 117.366 50.2029 116.178 50.4408C114.99 50.6787 113.758 50.5586 112.638 50.0958C111.518 49.6329 110.56 48.8481 109.887 47.8408C109.213 46.8334 108.854 45.6488 108.854 44.437C108.863 42.8205 109.507 41.2724 110.648 40.127C111.789 38.9817 113.335 38.3312 114.951 38.316H114.954Z" fill="#7F3E13"/>
<path d="M178.368 63.857V101.93L178.749 102.03C181.436 103.057 183.745 104.882 185.365 107.259C186.984 109.637 187.837 112.453 187.809 115.33V142.688L107.227 169.369L26.652 143.349V115.322C26.6236 112.445 27.4764 109.629 29.0958 107.251C30.7153 104.874 33.0238 103.049 35.711 102.022L36.093 101.922V63.76C36.093 37.454 178.368 37.454 178.368 63.76V63.857Z" fill="#7F3E13"/>
<path d="M42.482 65.291V106.329L39.144 107.668C37.3481 108.352 35.8073 109.575 34.732 111.168C33.6567 112.76 33.0993 114.646 33.136 116.568V145.457L107.23 169.372L181.324 144.884V116.561C181.348 114.642 180.785 112.762 179.711 111.172C178.637 109.581 177.104 108.356 175.315 107.661L171.978 106.322V65.291C171.978 45.776 42.578 45.776 42.578 65.291H42.482Z" fill="#B85A1B"/>
<path d="M42.482 65.292V106.33L39.144 107.669C37.3481 108.353 35.8073 109.576 34.732 111.169C33.6567 112.761 33.0993 114.647 33.136 116.569V145.449L107.23 169.364V153.681C81.578 153.781 55.93 136.939 62.697 103.555H107.23V50.749C74.903 50.749 42.481 55.627 42.481 65.386L42.482 65.292Z" fill="#E1762F"/>
<path d="M59.169 94.85H155.481C169.118 167.361 44.484 166.786 59.169 94.85Z" fill="#E5895B"/>
<path d="M63.938 100.495C62.602 111.687 64.987 122.495 73.283 130.914C82.056 139.714 95.31 143.541 107.517 143.445C119.246 143.345 131.738 139.62 140.417 131.296C149.094 122.878 151.764 111.973 150.617 100.496L63.938 100.495Z" fill="#E5895B"/>
<path d="M123.347 134.358C129.831 142.776 148.712 139.331 143.086 121.539L123.347 134.358Z" fill="#FAD395"/>
<path d="M117.433 132.54C124.68 141.913 148.333 136.366 142.895 116.087L117.433 132.54Z" fill="#4F2800"/>
<path d="M123.727 127.661C124.448 127.51 125.199 127.645 125.822 128.038C126.445 128.431 126.891 129.051 127.065 129.766C127.16 130.279 127.103 130.808 126.901 131.289C126.7 131.771 126.362 132.183 125.93 132.475C125.498 132.767 124.991 132.928 124.469 132.936C123.948 132.945 123.435 132.801 122.994 132.523C122.553 132.245 122.202 131.844 121.985 131.37C121.768 130.895 121.694 130.368 121.771 129.852C121.849 129.337 122.076 128.855 122.423 128.465C122.77 128.076 123.223 127.797 123.727 127.661ZM139.175 116.947C139.896 116.783 140.653 116.912 141.279 117.306C141.905 117.7 142.348 118.326 142.513 119.047C142.728 119.757 142.659 120.522 142.321 121.182C141.983 121.842 141.402 122.345 140.701 122.586C140.344 122.667 139.974 122.677 139.612 122.615C139.251 122.553 138.906 122.421 138.596 122.225C138.286 122.03 138.017 121.775 137.806 121.476C137.594 121.177 137.444 120.838 137.363 120.481C137.15 119.772 137.22 119.008 137.558 118.35C137.896 117.691 138.475 117.189 139.175 116.948V116.947Z" fill="white"/>
<path d="M133.264 136.079C136.026 135.255 138.485 133.637 140.334 131.425C142.182 129.213 143.338 126.506 143.658 123.641C139.461 123.07 132.215 129.192 133.264 136.079Z" fill="#AD6151"/>
<path d="M69.091 94.85H145.473C156.246 146.602 57.453 146.124 69.091 94.85Z" fill="#FAD395"/>
<path d="M107.226 124.313C107.663 121.176 108.912 118.209 110.85 115.704C120.004 114.269 127.919 107.286 125.44 94.754C119.623 92.6883 113.499 91.621 107.326 91.597L103.607 103.462L107.326 124.411L107.226 124.313Z" fill="#4F2800"/>
<path d="M107.231 124.313C106.794 121.176 105.545 118.209 103.607 115.704C94.453 114.269 86.537 107.286 89.016 94.754C94.8346 92.6879 100.961 91.6205 107.135 91.597V124.313H107.231Z" fill="#63300F"/>
<path d="M93.689 96.572C102.558 94.1801 111.903 94.1801 120.772 96.572C124.586 106.042 89.589 105.942 93.689 96.572Z" fill="#AD6151"/>
<path d="M92.64 70.266C94.666 70.2589 96.6486 70.8531 98.3366 71.9735C100.025 73.0939 101.342 74.6901 102.122 76.5598C102.903 78.4296 103.111 80.4888 102.72 82.4768C102.329 84.4647 101.357 86.292 99.9267 87.7271C98.4966 89.1622 96.6728 90.1407 94.6862 90.5386C92.6997 90.9365 90.6397 90.7359 88.7672 89.9622C86.8947 89.1885 85.2939 87.8766 84.1676 86.1925C83.0413 84.5085 82.44 82.528 82.44 80.502C82.4389 77.7931 83.5121 75.1944 85.4241 73.2756C87.3362 71.3568 89.9312 70.2745 92.64 70.266Z" fill="white"/>
<path d="M93.403 73.808C94.9177 73.803 96.3999 74.2477 97.6617 75.0857C98.9235 75.9236 99.9083 77.1172 100.491 78.5152C101.074 79.9132 101.229 81.4528 100.937 82.939C100.644 84.4252 99.9174 85.7912 98.848 86.8639C97.7786 87.9367 96.4149 88.668 94.9297 88.9652C93.4444 89.2624 91.9043 89.1122 90.5045 88.5335C89.1046 87.9549 87.908 86.9738 87.0661 85.7146C86.2241 84.4554 85.7748 82.9747 85.775 81.46C85.7779 79.4356 86.5817 77.4946 88.011 76.0609C89.4402 74.6272 91.3787 73.8172 93.403 73.808Z" fill="#1B1D23"/>
<path d="M122.011 70.266C119.985 70.2589 118.002 70.8531 116.314 71.9735C114.626 73.0939 113.309 74.6901 112.529 76.5598C111.748 78.4296 111.54 80.4888 111.931 82.4768C112.322 84.4647 113.294 86.292 114.724 87.7271C116.154 89.1622 117.978 90.1407 119.965 90.5386C121.951 90.9365 124.011 90.7359 125.884 89.9622C127.756 89.1885 129.357 87.8766 130.483 86.1925C131.61 84.5085 132.211 82.528 132.211 80.502C132.212 77.7931 131.139 75.1944 129.227 73.2756C127.315 71.3568 124.72 70.2745 122.011 70.266Z" fill="white"/>
<path d="M121.248 73.808C119.733 73.8032 118.251 74.2481 116.99 75.0861C115.728 75.9242 114.743 77.1178 114.16 78.5159C113.578 79.9139 113.423 81.4535 113.715 82.9396C114.008 84.4258 114.735 85.7916 115.804 86.8643C116.874 87.9369 118.238 88.6681 119.723 88.9653C121.208 89.2624 122.748 89.1121 124.148 88.5334C125.548 87.9547 126.744 86.9737 127.586 85.7145C128.428 84.4553 128.877 82.9747 128.877 81.46C128.874 79.4354 128.07 77.4943 126.641 76.0605C125.211 74.6268 123.273 73.817 121.248 73.808Z" fill="#1B1D23"/>
<path d="M100.079 66.917C92.8058 65.3417 85.2048 66.682 78.909 70.65C76.716 58.118 97.79 54.387 100.079 66.917Z" fill="#63300F"/>
<path d="M112.475 60.604C119.748 59.0287 127.348 60.3686 133.644 64.336C135.837 51.803 114.763 48.07 112.475 60.604Z" fill="#4F2800"/>
<path d="M187.713 142.776V221.504C187.71 224.035 186.705 226.461 184.918 228.253C183.131 230.046 180.708 231.058 178.177 231.069H36.093C33.5624 231.058 31.1391 230.045 29.3523 228.253C27.5656 226.461 26.5607 224.035 26.557 221.504V143.445L107.14 162.77L187.713 142.776Z" fill="#7EAABA"/>
<path d="M181.326 151.002L107.232 169.368L33.042 151.576V219.781C33.0348 220.41 33.153 221.033 33.3896 221.615C33.6262 222.198 33.9766 222.727 34.4201 223.172C34.8637 223.618 35.3916 223.97 35.973 224.209C36.5543 224.448 37.1775 224.569 37.806 224.564H176.557C177.186 224.569 177.809 224.449 178.391 224.211C178.973 223.972 179.502 223.62 179.946 223.175C180.39 222.729 180.741 222.2 180.978 221.617C181.215 221.035 181.333 220.411 181.326 219.782V151.002Z" fill="#D3E8EF"/>
<path d="M107.23 169.368L33.136 151.577V219.782C33.129 220.411 33.2474 221.035 33.4844 221.617C33.7214 222.2 34.0722 222.729 34.5163 223.175C34.9604 223.62 35.4888 223.972 36.0707 224.211C36.6526 224.449 37.2762 224.569 37.905 224.564H107.231L107.23 169.368Z" fill="white"/>
<path d="M107.231 188.692H169.5V197.11H107.231V188.692ZM107.231 206.007H169.5V214.425H107.231V206.007Z" fill="#036AAB"/>
<path d="M44.961 188.692H107.231V197.11H44.961V188.692ZM107.231 214.425V206.007H44.961V214.425H107.231Z" fill="#0399ED"/>
<path d="M70.232 183.24H78.052V221.407H70.232V183.24Z" fill="white"/>
<path d="M48.299 148.611C67.943 153.299 87.587 158.082 107.136 162.77L86.156 182.67C72.52 174.631 59.075 165.733 48.299 148.611Z" fill="#7EAABA"/>
<path d="M64.987 159.229C71.1395 165.13 77.9554 170.298 85.298 174.629L94.166 166.211C84.44 163.918 74.714 161.524 64.987 159.229Z" fill="white"/>
<path d="M166.067 148.611C146.423 153.299 126.779 158.082 107.231 162.77L128.211 182.67C141.845 174.631 155.291 165.733 166.067 148.611Z" fill="#7EAABA"/>
<path d="M149.38 159.229C143.227 165.13 136.411 170.297 129.068 174.629L120.199 166.211C129.926 163.918 139.653 161.524 149.38 159.229Z" fill="white"/>
</g>
</svg>
