<svg width="787" height="715" viewBox="0 0 787 715" fill="none" xmlns="http://www.w3.org/2000/svg">
<g clip-path="url(#clip0)">
<g clip-path="url(#clip1)">
<path d="M136.782 586.078C188.803 579.764 229.307 556.204 256.668 514.746L317.51 502.074L310.599 606.306C289.797 673.598 240.827 699.426 186.08 710.465L136.782 586.078Z" fill="#7EAABA"/>
<path d="M164.939 601.769L198.176 686.53C242.443 674.305 274.433 650.123 290.292 602.307L295.661 527.533L268.886 533.255C242.716 569.674 207.629 591.782 164.939 601.769Z" fill="#D3E8EF"/>
<path d="M164.939 601.769L184.921 651.961C244.213 628.087 285.58 590.137 295.323 527.623L268.548 533.345C242.377 569.765 207.29 591.873 164.939 601.769Z" fill="white"/>
<path d="M131.284 507.318C187.494 492.257 245.03 525.488 260.096 581.718C275.163 637.947 241.951 695.494 185.742 710.556C129.532 725.617 71.9957 692.385 56.9291 636.156C41.8625 579.927 75.413 522.288 131.284 507.318Z" fill="#7EAABA"/>
<path d="M136.548 526.964C91.5129 539.032 65.0837 585.323 77.0643 630.035C89.1357 675.086 135.417 701.531 180.114 689.555C225.15 677.487 251.579 631.196 239.598 586.484C227.865 541.342 181.584 514.897 136.548 526.964Z" fill="#D3E8EF"/>
<path d="M136.548 526.964C109.121 534.314 88.0325 554.486 79.1902 579.728C93.3352 621.682 137.966 646.028 180.969 634.505C208.397 627.156 229.485 606.983 238.328 581.742C224.521 539.697 179.891 515.351 136.548 526.964Z" fill="white"/>
<path d="M124.69 524.696C166.678 513.445 209.615 538.245 220.87 580.248C232.124 622.25 207.339 665.196 165.351 676.447C123.364 687.697 80.4261 662.897 69.1715 620.895C57.917 578.892 82.702 535.946 124.69 524.696Z" fill="#7EAABA"/>
<path d="M113.826 505.824C155.814 494.573 199.181 519.621 210.436 561.624C221.69 603.626 196.657 647.002 154.669 658.252C112.682 669.503 69.3147 644.455 58.0602 602.452C47.1443 560.359 72.1771 516.984 113.826 505.824Z" fill="#7F3E13"/>
<path d="M129.082 532.959C95.5589 541.941 75.7309 576.298 84.7164 609.832C93.7019 643.367 128.052 663.206 161.574 654.224C195.097 645.242 214.925 610.885 205.94 577.351C196.615 543.907 162.266 524.067 129.082 532.959Z" fill="#B85A1B"/>
<path d="M59.383 454.337C49.3014 411.294 111.987 391.956 125.751 436.553C136.025 400.4 198.895 402.07 193.68 455.746C195.784 459.539 197.46 463.083 199.136 466.628C231.08 459.883 254.829 506.525 215.571 533.382C215.476 547.929 213.235 561.236 207.989 572.808C179.273 614.629 160.433 591.722 134.646 575.396C115.526 581.245 58.6431 581.602 86.8841 627.403C47.3049 615.137 13.5867 577.338 12.8431 508.195C-23.9784 462.877 31.4597 427.329 59.383 454.337Z" fill="#7F3E13"/>
<path d="M35.2474 510.542C35.4709 543.883 44.5716 579.202 73.7272 598.618C114.41 625.838 177.276 607.177 189.337 556.023C195.669 528.187 186.914 498.221 174.417 473.252C125.214 475.181 78.6003 489.487 35.2474 510.542Z" fill="#B85A1B"/>
<path d="M35.2474 510.542C35.4709 543.883 44.5715 579.201 73.7271 598.618C92.3055 611.066 115.23 614 136.315 608.713L103.005 484.399C79.7313 490.998 57.0931 499.969 35.2474 510.542Z" fill="#E1762F"/>
<path d="M72.0759 526.087C72.3028 544.542 77.3192 564.617 93.9077 575.058C116.532 590.415 151.475 579.963 158.213 550.929C162.032 535.384 157.246 518.877 149.866 504.88C122.679 506.356 96.2011 514.54 72.0759 526.087Z" fill="#7F3E13"/>
<path d="M155.888 428.478C165.369 425.938 175.674 431.89 178.215 441.374C180.756 450.859 174.808 461.166 165.327 463.706C155.846 466.247 145.541 460.295 142.999 450.81C140.458 441.326 146.406 431.019 155.888 428.478ZM98.2188 467.892C107.7 465.351 113.648 455.044 111.107 445.56C108.566 436.076 98.2607 430.124 88.7795 432.664L98.2188 467.892Z" fill="#B85A1B"/>
<path d="M98.2187 467.892L88.8702 433.003C79.3891 435.543 73.4407 445.85 75.982 455.334C78.6141 465.158 88.4897 470.862 98.2187 467.892ZM32.5 463.718C41.9811 461.178 52.2861 467.13 54.8275 476.614C57.3688 486.098 51.4204 496.405 41.9393 498.946C32.4582 501.486 22.1532 495.534 19.6118 486.05C17.0705 476.566 23.0189 466.258 32.5 463.718Z" fill="#E1762F"/>
<path d="M192.681 487.236C202.162 484.695 212.467 490.647 215.009 500.132C217.55 509.616 211.602 519.923 202.12 522.464C192.639 525.004 182.334 519.052 179.793 509.568C177.161 499.745 182.861 489.867 192.681 487.236Z" fill="#B85A1B"/>
<path d="M852.494 533.352C834.271 481.599 800.403 450.012 747.461 442.052L746.801 403.019L817.205 362.372C888.589 364.664 925.917 399.681 952.695 449.504L852.494 533.352Z" fill="#7EAABA"/>
<path d="M860.603 499.956L926.674 444.496C901.669 403.999 871.944 381.105 822.559 382.357L767.568 414.155L767.491 424.704C809.779 436.245 840.321 462.188 860.603 499.956Z" fill="white"/>
<path d="M782.052 561.666C751.235 514.377 764.025 451.047 811.295 420.228C858.564 389.41 921.878 402.215 952.695 449.504C983.512 496.793 970.722 560.124 923.452 590.942C875.935 622.19 812.869 608.955 782.052 561.666Z" fill="#7EAABA"/>
<path d="M796.853 551.892C822.263 591.19 874.825 601.794 913.678 576.135C952.96 550.724 963.552 498.149 937.894 459.279C912.484 419.981 859.922 409.377 821.069 435.036C781.787 460.447 770.766 512.774 796.853 551.892Z" fill="#D3E8EF"/>
<path d="M945.183 472.937C943.144 468.038 940.948 463.907 937.894 459.279C912.484 419.981 859.922 409.377 821.069 435.036C809.043 442.978 799.436 453.176 793.512 464.929C795.551 469.828 797.747 473.96 800.801 478.587C826.55 517.795 878.773 528.489 917.626 502.83C929.652 494.888 938.829 484.442 945.183 472.937Z" fill="white"/>
<path d="M770.235 592.061C740.912 547.639 753.165 487.72 797.998 458.644C842.402 429.319 902.305 441.586 931.38 486.438C960.703 530.86 948.45 590.779 903.617 619.855C859.214 649.179 799.22 636.574 770.235 592.061Z" fill="#7F3E13"/>
<path d="M787.564 580.883C764.688 545.624 774.7 499.013 809.176 475.979C844.419 453.103 891.019 463.126 914.051 497.616C936.927 532.874 926.915 579.485 892.439 602.519C857.287 625.734 810.349 615.802 787.564 580.883Z" fill="#B85A1B"/>
<path d="M775.259 547.149C772.581 519.549 784.785 491.954 809.085 475.641C844.329 452.765 890.928 462.787 913.961 497.277C917.626 502.83 920.614 508.564 922.587 514.571C883.259 557.42 819.816 567.158 775.259 547.149Z" fill="#E1762F"/>
<path d="M287.838 79.8104C325.085 69.83 363.415 93.6863 373.943 132.979C384.472 172.272 363.205 212.097 325.958 222.077C288.711 232.057 250.381 208.201 239.853 168.908C229.324 129.616 250.59 89.7908 287.838 79.8104Z" fill="#7F3E13"/>
<path d="M293.102 99.4569C265.674 106.806 252.322 136.886 259.492 163.646C266.572 190.067 293.266 209.78 320.694 202.431C348.121 195.082 361.474 165.001 354.304 138.241C347.133 111.482 320.53 92.1077 293.102 99.4569Z" fill="#B85A1B"/>
<path d="M298.366 119.103C281.436 123.64 274.866 142.464 279.132 158.384C283.307 173.965 298.837 187.23 315.429 182.784C332.36 178.248 338.93 159.424 334.664 143.504C330.489 127.922 314.958 114.657 298.366 119.103Z" fill="#63300F"/>
<path d="M573.288 3.32436C610.535 -6.65604 648.865 17.2002 659.393 56.4929C669.922 95.7856 648.656 135.61 611.408 145.591C574.161 155.571 535.831 131.715 525.303 92.4223C514.774 53.1297 536.041 13.3048 573.288 3.32436Z" fill="#7F3E13"/>
<path d="M578.552 22.9708C551.125 30.32 537.772 60.4004 544.942 87.16C552.022 113.581 578.716 133.294 606.144 125.945C633.572 118.595 646.924 88.515 639.754 61.7554C632.584 34.9957 605.98 15.6215 578.552 22.9708Z" fill="#B85A1B"/>
<path d="M583.816 42.6172C566.886 47.1537 560.316 65.9774 564.582 81.8977C568.757 97.4793 584.288 110.744 600.88 106.298C617.81 101.762 624.38 82.9381 620.114 67.0178C615.939 51.4363 600.408 38.1714 583.816 42.6172Z" fill="#4F2800"/>
<path d="M412.199 82.0669C423.712 78.9821 436.073 85.8353 439.25 97.6908C442.336 109.208 435.487 121.571 423.635 124.747C412.123 127.832 399.761 120.978 396.585 109.123C393.837 97.5154 400.686 85.1518 412.199 82.0669ZM466.377 67.5499C477.89 64.4651 490.251 71.3183 493.428 83.1739C496.514 94.6907 489.665 107.054 477.813 110.23C466.301 113.315 453.939 106.462 450.763 94.606C448.015 82.9984 454.864 70.6348 466.377 67.5499Z" fill="#7F3E13"/>
<path d="M711.271 97.05L746.668 229.155L748.114 229.13C769.502 231.75 786.412 246.097 791.948 266.76L817.452 361.943L561.612 529.971L256.669 514.746L230.62 417.53C224.992 396.529 232.463 375.649 249.767 363.025L251.031 362.323L215.452 229.541C190.946 138.084 686.674 5.25426 711.271 97.05Z" fill="#7F3E13"/>
<path d="M239.252 228.973L277.463 371.578L267.221 379.405C255.715 387.934 250.765 401.967 254.487 415.855L281.352 516.119L561.612 529.971L796.853 375.812L770.532 277.581C766.81 263.693 755.507 254.015 741.278 252.382L728.495 250.724L690.284 108.119C672.131 40.3731 221.438 161.136 239.252 228.973Z" fill="#B85A1B"/>
<path d="M239.252 228.973L277.463 371.578L267.221 379.405C255.715 387.934 250.765 401.967 254.487 415.855L281.352 516.119L561.612 529.971L546.999 475.435C457.696 499.727 352.601 465.08 345.263 342.883L500.347 301.328L451.245 118.075C338.487 148.289 230.267 195.438 239.252 228.973Z" fill="#E1762F"/>
<path d="M324.656 316.093L660.221 226.179C775.492 465.401 340.508 579.776 324.656 316.093Z" fill="#E5895B"/>
<path d="M346.512 331.294C352.209 371.518 370.749 406.848 407.337 428.267C445.981 450.587 495.91 451.367 538.237 440.026C579.118 428.709 619.012 404.223 641.343 367.018C663.673 329.812 662.989 289.334 648.216 250.452L346.512 331.294Z" fill="#E5895B"/>
<path d="M585.237 393.305C615.73 416.357 678.244 386.9 642.086 330.513L585.237 393.305Z" fill="#FAD395"/>
<path d="M562.858 392.404C596.967 418.117 674.076 376.762 636.235 311.387L562.858 392.404Z" fill="#4F2800"/>
<path d="M580.329 369.57C585.046 366.854 590.694 368.971 593.839 373.937C596.646 378.994 595.389 385.14 590.673 387.856C585.957 390.571 580.308 388.454 577.163 383.488C574.447 378.77 575.613 372.286 580.329 369.57ZM624.276 318.222C628.992 315.507 634.979 317.533 637.785 322.59C640.592 327.646 639.335 333.792 634.619 336.508C629.903 339.224 623.916 337.197 621.109 332.141C618.303 327.084 619.469 320.6 624.276 318.222Z" fill="white"/>
<path d="M621.41 390.148C637.723 379.242 649.487 360.842 646.024 337.083C630.58 339.042 611.241 367.096 621.41 390.148Z" fill="#AD6151"/>
<path d="M359.194 306.838L625.344 235.524C711.125 405.318 366.641 495.807 359.194 306.838Z" fill="#FAD395"/>
<path d="M519.679 373.478C518.468 362.185 519.809 350.934 524.221 340.312C554.689 326.703 576.011 295.213 555.499 253.876C532.508 252.049 510.268 254.378 489.613 259.912L487.818 304.685L519.679 373.478Z" fill="#4F2800"/>
<path d="M519.679 373.477C515.082 363.092 508.296 354.019 499.164 347.026C465.973 350.474 431.762 333.864 428.858 287.809C447.855 274.732 468.28 265.628 488.935 260.094L519.679 373.477Z" fill="#63300F"/>
<path d="M446.836 289.89C476.058 272.984 507.21 264.637 541.309 264.576C562.98 293.985 440.989 326.309 446.836 289.89Z" fill="#AD6151"/>
<path d="M418.605 199.43C438.244 194.168 458.425 205.824 463.689 225.47C468.954 245.117 457.305 265.301 437.665 270.564C418.026 275.826 397.845 264.17 392.581 244.524C387.316 224.877 398.965 204.693 418.605 199.43Z" fill="white"/>
<path d="M424.581 210.899C439.142 206.997 454.17 215.677 458.073 230.243C461.975 244.808 453.301 259.839 438.74 263.741C424.18 267.642 409.152 258.962 405.249 244.397C401.008 229.922 409.682 214.891 424.581 210.899Z" fill="#1B1D23"/>
<path d="M520.866 172.03C501.226 177.292 489.577 197.477 494.842 217.123C500.106 236.769 520.287 248.425 539.926 243.163C559.566 237.901 571.215 217.716 565.95 198.07C560.686 178.423 540.505 166.767 520.866 172.03Z" fill="white"/>
<path d="M521.424 184.95C506.864 188.852 498.189 203.883 502.092 218.448C505.995 233.013 521.023 241.693 535.583 237.792C550.144 233.891 558.818 218.859 554.916 204.294C551.352 189.638 535.985 181.049 521.424 184.95Z" fill="#1B1D23"/>
<path d="M441.163 180.679C411.606 182.79 388.587 194.404 370.794 213.33C351.727 171.969 421.757 139.409 441.163 180.679Z" fill="#63300F"/>
<path d="M478.697 147.387C505.349 134.437 531.091 132.985 555.963 140.48C551.704 94.7875 474.776 101.604 478.697 147.387Z" fill="#4F2800"/>
<path d="M817.204 362.372L890.45 635.727C895.351 654.018 884.445 672.915 866.16 677.814L371.109 810.463C352.824 815.362 333.932 804.45 329.03 786.159L256.33 514.836L555.01 506.689L817.204 362.372Z" fill="#7EAABA"/>
<path d="M802.571 397.152L561.612 529.97L286.732 537.549L350.265 774.66C352.716 783.806 362.162 789.261 371.305 786.812L854.504 657.339C863.647 654.889 869.1 645.441 866.649 636.295L802.571 397.152Z" fill="#D3E8EF"/>
<path d="M561.612 529.97L287.07 537.458L350.604 774.569C353.054 783.715 362.501 789.171 371.643 786.721L613.074 722.03L561.612 529.97Z" fill="white"/>
<path d="M579.582 597.039L796.633 538.881L800.536 553.446L804.438 568.011L587.388 626.17L579.582 597.039ZM595.738 657.333L812.788 599.174L816.691 613.74L820.594 628.305L603.544 686.464L595.738 657.333Z" fill="#036AAB"/>
<path d="M362.532 655.198L579.582 597.039L587.388 626.17L370.338 684.329L366.435 669.763L362.532 655.198ZM603.544 686.464L595.738 657.333L378.688 715.492L382.59 730.057L386.493 744.622L603.544 686.464Z" fill="#0399ED"/>
<path d="M445.488 612.639L472.916 605.289L508.495 738.072L481.067 745.421L445.488 612.639Z" fill="white"/>
<path d="M337.08 512.804C409.836 510.735 482.683 509.005 555.101 507.027L500.476 595.726C445.628 580.653 390.302 562.44 337.08 512.804Z" fill="#7EAABA"/>
<path d="M404.876 534.21C431.406 549.247 458.879 559.675 489.986 568.767L512.994 531.379C476.955 532.323 440.915 533.266 404.876 534.21Z" fill="white"/>
<path d="M747.139 402.929C683.096 437.515 619.144 472.441 555.439 506.937L647.095 556.44C687.058 515.962 725.528 472.616 747.139 402.929Z" fill="#7EAABA"/>
<path d="M698.791 455.456C683.334 481.744 664.755 504.511 642.362 527.938L603.742 507.064C635.425 489.861 667.108 472.658 698.791 455.456Z" fill="white"/>
<path d="M295 674H787V821L303 815L295 674Z" fill="#011A2B"/>
</g>
</g>
<defs>
<clipPath id="clip0">
<rect width="787" height="715" fill="white"/>
</clipPath>
<clipPath id="clip1">
<rect width="934.235" height="727.659" fill="white" transform="translate(-81.5881 178.798) rotate(-15)"/>
</clipPath>
</defs>
</svg>
