<svg width="410" height="18" viewBox="0 0 410 18" fill="none" xmlns="http://www.w3.org/2000/svg">
<path fill-rule="evenodd" clip-rule="evenodd" d="M409.04 9.07181C408.129 9.45332 407.444 9.83877 406.758 10.2242C406.299 10.6136 405.388 10.9951 404.48 11.2442C403.798 11.431 402.441 11.4736 401.31 11.4538C397.241 11.449 393.396 11.5144 389.327 11.4434C386.388 11.4583 383.224 11.3368 380.286 11.2856C377.799 11.2422 375.086 11.261 372.599 11.2176C369.209 11.1584 365.818 11.0993 362.202 11.0361C360.846 11.0125 359.263 10.9848 357.907 10.9612C354.517 10.902 351.126 10.8428 347.509 10.7797C345.249 10.7402 342.988 10.767 340.727 10.7275C335.981 10.6447 331.461 10.4995 326.714 10.4167C322.646 10.3457 318.577 10.2747 314.508 10.2036C312.248 10.1642 309.988 10.1247 307.727 10.0853C306.597 10.0655 305.242 9.97566 304.111 10.0221C301.85 9.98269 299.815 10.0134 297.554 9.97394C295.972 9.94633 294.617 9.85644 293.035 9.82882C291.905 9.80909 290.776 9.72315 289.868 9.90601C289.641 9.96828 289.415 9.96434 289.189 9.96039C287.155 9.92488 285.121 9.82316 283.313 9.7916C281.279 9.75609 279.47 9.72452 277.436 9.68901C277.436 9.68901 277.209 9.75128 276.982 9.81355C284.213 10.0722 291.445 10.2647 298.675 10.5234C298.675 10.5234 298.675 10.5234 298.674 10.5896C298.222 10.5817 297.769 10.64 297.317 10.6321C297.542 10.7023 297.541 10.7685 297.541 10.7685C299.122 10.8624 300.477 10.9522 302.059 10.9799C302.051 11.4434 302.954 11.5254 304.309 11.6153C305.665 11.6389 307.02 11.7288 308.375 11.8187C309.279 11.8345 309.953 12.1112 311.083 12.1309C312.665 12.1585 314.244 12.3848 316.05 12.5488C315.37 12.6694 314.689 12.79 314.237 12.7821C311.976 12.8088 309.712 12.968 307.229 12.726C307.003 12.722 306.325 12.7102 306.325 12.7102C305.189 13.0216 303.611 12.7291 302.476 12.9742L302.25 12.9703C300.673 12.6778 299.086 12.915 297.731 12.8251C297.505 12.8212 297.279 12.8172 297.279 12.8172C293.886 12.8905 290.499 12.6327 287.333 12.6436C284.846 12.6665 282.362 12.4906 279.874 12.5134C276.934 12.5284 273.771 12.4069 270.833 12.3556C268.572 12.3162 266.313 12.2105 264.053 12.171C261.566 12.1276 259.306 12.0882 256.82 12.0448C252.525 11.9698 248.004 11.8909 243.708 11.8822C241.448 11.8427 239.185 11.9357 236.926 11.83C233.989 11.7125 231.273 11.8638 228.337 11.6801C226.756 11.5863 225.171 11.6911 223.59 11.5972C222.009 11.5034 220.198 11.6043 218.616 11.5767C216.808 11.5451 214.775 11.4434 212.966 11.4118C209.802 11.3566 206.635 11.4338 203.697 11.3825C202.792 11.3667 201.662 11.347 200.758 11.3312C195.784 11.3106 191.037 11.2277 186.29 11.2111C182.672 11.2142 179.054 11.2173 175.438 11.1541C171.595 11.0871 167.976 11.1564 164.132 11.1555C158.706 11.127 153.279 11.1648 147.852 11.2025C145.817 11.2332 143.556 11.1938 141.522 11.1583C139.034 11.1811 136.321 11.1999 133.834 11.1565C132.704 11.1368 131.8 11.121 130.669 11.1675C126.825 11.1667 122.981 11.1658 119.363 11.1689C113.484 11.1987 107.831 11.2325 101.953 11.1962C97.4311 11.1835 92.9081 11.237 88.6122 11.2283C84.7685 11.2274 80.6975 11.2888 76.8538 11.2879C74.5923 11.3147 72.558 11.2792 70.2965 11.306C66.9048 11.313 63.5119 11.3862 60.1202 11.3933C58.7629 11.4358 57.1818 11.342 55.8244 11.3845C51.5286 11.3758 47.2339 11.3008 42.9381 11.2921C41.3558 11.2644 39.7747 11.1706 37.9665 11.1391C36.3854 11.0452 35.9368 10.8387 36.3958 10.4493C36.8536 10.1261 37.5375 9.80686 38.2214 9.48762C38.6781 9.23065 39.5845 9.114 40.4898 9.06357C41.1691 9.00919 42.0744 8.95876 42.7548 8.83816C39.8152 8.85309 36.8767 8.8018 33.9371 8.81672C27.1549 8.76457 20.1478 8.64226 13.3667 8.5239C11.1064 8.48444 8.62 8.44104 6.3608 8.33537C4.10622 7.96484 2.07537 7.73069 0.270557 7.50048C1.18279 7.05276 2.0904 6.86989 3.67149 6.96373C4.12356 6.97162 4.57563 6.97951 4.80282 6.91724C5.25836 6.72648 6.1625 6.74227 7.06664 6.75805C9.77907 6.80539 12.7175 6.85668 15.43 6.90403C17.9163 6.94743 20.4039 6.92461 22.6654 6.89785C23.5695 6.91364 24.4737 6.92942 25.3778 6.9452C26.9601 6.97282 28.3163 6.99649 29.8985 7.02411C31.4808 7.05173 33.2902 7.01708 34.8736 6.97848C36.9091 6.94777 38.7174 6.97934 40.7517 7.01485C44.5954 7.0157 48.4392 7.01656 52.283 7.01742C52.9611 7.02926 53.4131 7.03715 54.0912 7.04898C54.0936 6.91655 54.0947 6.85034 54.0959 6.78412C55 6.7999 55.9042 6.81569 57.0343 6.83541C56.8071 6.89768 56.806 6.9639 56.5799 6.95995C57.9362 6.98363 59.2924 7.0073 60.4226 7.02703C61.7788 7.0507 62.9136 6.80557 64.2663 7.02788C64.2686 6.89545 64.2698 6.82924 64.2709 6.76302C65.1751 6.77881 65.8532 6.79064 66.7573 6.80642C69.2449 6.78361 71.7324 6.76079 74.4471 6.67571L74.6732 6.67965C75.8034 6.69938 76.9312 6.85154 78.2886 6.809C79.4188 6.82872 80.5513 6.71602 81.6826 6.66953C83.04 6.62699 84.3973 6.58445 85.5275 6.60418C88.4671 6.58925 91.1819 6.50417 94.1215 6.48924C95.2516 6.50897 96.6055 6.66507 97.7369 6.61859C100.679 6.47123 103.615 6.65495 106.332 6.43744C107.237 6.387 108.592 6.47689 109.498 6.42646C110.628 6.44619 111.985 6.40364 113.115 6.42337C114.472 6.44704 115.829 6.4045 116.959 6.42423C118.089 6.44396 119.447 6.40141 120.578 6.35493C121.937 6.24617 123.52 6.20757 124.875 6.29746C128.264 6.42286 131.431 6.34566 134.822 6.40485C136.178 6.42852 137.535 6.38598 138.667 6.33949C139.571 6.35527 140.249 6.36711 141.153 6.38289C142.736 6.34429 144.094 6.30175 145.677 6.26315C146.809 6.21666 147.713 6.23245 148.842 6.31839C149.519 6.39644 150.425 6.27979 151.103 6.29163C153.817 6.27276 156.53 6.25389 159.245 6.1688C161.055 6.13415 162.864 6.0995 164.672 6.13107C166.933 6.17052 169.194 6.14376 171.231 6.04684C172.814 6.00824 174.622 6.03981 176.206 6.00121C178.467 5.97445 180.502 6.00996 182.763 5.9832C183.441 5.99503 184.345 6.01082 185.25 6.0266C188.641 6.01956 192.26 5.95026 195.652 5.94323C197.913 5.91647 200.401 5.89365 202.661 5.93311C204.47 5.96467 206.278 5.99623 208.087 5.96158C210.349 5.93482 212.609 5.97428 214.871 5.94752C216.001 5.96724 217.132 5.92076 218.263 5.87427C220.066 6.23691 221.885 5.67254 223.462 5.96501C223.687 6.03517 224.14 5.97685 224.368 5.91458C226.631 5.75539 228.889 5.92728 231.151 5.90051C232.055 5.9163 232.734 5.86192 233.638 5.8777C233.864 5.88165 234.092 5.81938 234.092 5.81938C236.123 6.05353 238.163 5.75796 240.195 5.9259C240.421 5.92985 240.873 5.93774 240.874 5.87152C241.328 5.74699 241.553 5.81715 242.005 5.82504C242.682 5.90309 243.586 5.91887 244.49 5.93465C245.395 5.95043 246.073 5.96227 246.977 5.97805C248.559 6.00567 250.369 5.97102 251.952 5.93242C252.178 5.93637 252.631 5.87804 252.857 5.88199C253.533 6.02626 253.763 5.83156 254.443 5.71096C254.668 5.78112 255.119 5.85523 255.345 5.85917C255.57 5.92933 256.022 5.93723 256.022 5.93723C256.702 5.81663 257.38 5.82847 258.283 5.91046C259.187 5.92625 260.093 5.87581 260.77 5.95386C262.802 6.1218 264.612 6.02094 266.421 6.0525C267.778 6.00996 269.132 6.16606 270.489 6.12352C272.297 6.15508 274.333 6.12438 276.144 6.02351C277.275 5.97702 278.404 6.06297 279.538 5.88405C281.117 6.0441 282.701 6.0055 284.059 5.89674C284.285 5.90069 284.51 5.97085 284.736 5.97479C287.218 6.28305 289.931 6.3304 292.646 6.1791C294.683 6.08218 296.721 5.91904 298.754 6.02077C299.432 6.0326 300.336 6.04838 300.784 6.32114C301.231 6.59389 302.364 6.48118 302.817 6.42286C304.4 6.38426 305.981 6.4781 307.565 6.4395C307.791 6.44345 308.243 6.45134 308.244 6.38512C308.476 6.05799 309.378 6.2062 310.056 6.21804C312.316 6.25749 314.35 6.293 316.611 6.33246C319.097 6.37586 321.81 6.4232 324.297 6.40039C325.427 6.42012 326.784 6.44379 327.914 6.46352C328.592 6.47535 329.495 6.55735 329.727 6.23022C329.728 6.164 330.858 6.18373 331.31 6.19162C331.762 6.19951 332.213 6.27362 332.663 6.41394C333.111 6.62048 334.466 6.71036 335.371 6.72615C337.179 6.75771 338.988 6.72306 341.249 6.76251C340.572 6.68446 340.347 6.6143 339.895 6.60641L339.896 6.5402C340.574 6.55203 341.479 6.5016 342.157 6.51343C342.381 6.64981 342.605 6.78619 342.604 6.8524C344.412 6.88397 346.22 6.91553 348.255 6.95104C347.804 6.87693 347.579 6.80677 347.354 6.73661C347.808 6.61207 348.26 6.61996 348.484 6.75634C349.382 7.1032 350.288 7.05276 351.645 7.01022C350.968 6.93217 350.516 6.92428 350.065 6.85017C350.066 6.78396 350.066 6.78396 350.067 6.71774C350.972 6.73352 351.876 6.7493 352.554 6.76114C355.718 6.81638 358.656 6.93388 361.82 6.98912C366.341 7.06803 370.634 7.20921 375.154 7.35433C378.091 7.47184 381.029 7.58934 383.966 7.70685C386.677 7.82041 389.164 7.86381 391.875 7.97737C396.619 8.19266 401.365 8.34173 406.106 8.75566C407.689 8.71706 408.592 8.79906 409.04 9.07181ZM276.081 9.59913C276.082 9.53291 276.082 9.53291 276.083 9.4667C275.405 9.45486 274.503 9.30665 273.821 9.55967C274.725 9.57545 275.403 9.58729 276.081 9.59913ZM304.083 11.6113C304.082 11.6775 304.308 11.6815 304.307 11.7477C304.76 11.6894 304.986 11.6933 305.439 11.635L305.44 11.5688C304.761 11.6231 304.309 11.6153 304.083 11.6113Z" fill="#FFC967"/>
</svg>
